# xmcd
#
# Track frame offsets:
#	150
#	950
#	19802
#	34937
#	50460
#	63987
#	70510
#	91350
#	111155
#	129835
#	135337
#	159572
#	174882
#	193230
#	208582
#	218555
#	230777
#	246055
#
# Disc length: 3594 seconds
#
# Revision: 2
# Processed by: cddbd v1.5.1PL0 Copyright (c) Steve Scherf et al.
# Submitted via: audiograbber 1.83.01
#
DISCID=e90e0812
DTITLE=Blaze Foley - Oval Room
DYEAR=2004
DGENRE=
TTITLE0=Introduction
TTITLE1=Oval Room
TTITLE2=My Reasons Why
TTITLE3=WW III
TTITLE4=Rainbows And Ridges
TTITLE5=Wouldn't That Be Nice
TTITLE6=Cold Cold World
TTITLE7=For Anything Less
TTITLE8=Springtime In Uganda
TTITLE9=20 Years Introduction
TTITLE10=Someday
TTITLE11=Lovin' You
TTITLE12=Blaze Foley's 113th Wet Dream
TTITLE13=Big Cheesburgers And Good French Fries
TTITLE14=Ain't Got No Sweet Thing
TTITLE15=Down Here Where I Am
TTITLE16=No Goodwill Stores In Waikiki
TTITLE17=Long Gone
EXTD=
EXTT0=
EXTT1=
EXTT2=
EXTT3=
EXTT4=
EXTT5=
EXTT6=
EXTT7=
EXTT8=
EXTT9=
EXTT10=
EXTT11=
EXTT12=
EXTT13=
EXTT14=
EXTT15=
EXTT16=
EXTT17=
PLAYORDER=
